<svg id="Capa_1" enable-background="new 0 0 512 512" height="512" viewBox="0 0 512 512" width="512" xmlns="http://www.w3.org/2000/svg" xmlns:xlink="http://www.w3.org/1999/xlink"><linearGradient id="SVGID_1_" gradientUnits="userSpaceOnUse" x1="256" x2="256" y1="512" y2="0"><stop offset="0" stop-color="#ffc8d1"/><stop offset="1" stop-color="#fff6f7"/></linearGradient><linearGradient id="SVGID_2_" gradientUnits="userSpaceOnUse" x1="256" x2="256" y1="105" y2="407"><stop offset="0" stop-color="#fd3a84"/><stop offset="1" stop-color="#ffa68d"/></linearGradient><g><circle cx="256" cy="256" fill="url(#SVGID_1_)" r="256"/><g><g><path d="m206.713 213.045c14.399-9.455 29.293-19.222 49.287-19.222s34.887 9.767 49.287 19.222c15.025 9.874 28.558 18.484 46.954 15.465-7.636-54.568-46.371-123.51-96.241-123.51-49.867 0-88.6 68.933-96.239 123.5 18.418 3.017 31.923-5.605 46.952-15.455zm9.75 14.851c-1.594 1.046-3.243 2.098-4.875 3.151v7.189c0 9.699 3.313 18.969 9.108 26.647h70.608c5.794-7.678 9.108-16.948 9.108-26.647v-7.233c-1.619-1.043-3.293-2.069-4.875-3.106-12.777-8.388-24.852-16.308-39.537-16.308s-26.76 7.919-39.537 16.307zm-16.368 36.986c-3.575-7.498-5.673-15.605-6.031-24.019-10.394 4.74-22.03 7.454-35.734 5.454-.002.26-.036.541-.036.8 0 6.373.666 12.23 1.713 17.765zm117.832-23.92c-.37 8.379-2.461 16.452-6.022 23.92h40.088c1.047-5.534 1.713-11.391 1.713-17.765 0-.226-.03-.471-.031-.697-3.056.448-6.045.741-8.903.741-9.957 0-18.766-2.524-26.845-6.199zm67.19 89.684-21.813 76.354h34.814c4.91 0 8.882-3.973 8.882-8.882 0-24.617-7.739-47.951-21.883-67.472zm-280.117 67.472c0 4.91 3.973 8.882 8.882 8.882h34.815l-21.812-76.356c-14.145 19.522-21.885 42.856-21.885 67.474zm270.66-111.941c-1.674-2.221-4.302-3.531-7.087-3.531h-225.146c-2.784 0-5.413 1.31-7.087 3.531-1.683 2.229-2.221 5.109-1.457 7.789l32.289 113.034h177.656l32.29-113.033c.763-2.68.225-5.56-1.458-7.79zm-119.66 49.764c-4.905 0-8.882-3.977-8.882-8.882 0-4.906 3.977-8.882 8.882-8.882s8.882 3.976 8.882 8.882c0 4.905-3.977 8.882-8.882 8.882z" fill="url(#SVGID_2_)"/></g></g></g></svg>