<?xml version="1.0" encoding="iso-8859-1"?>
<!-- Generator: Adobe Illustrator 19.0.0, SVG Export Plug-In . SVG Version: 6.00 Build 0)  -->
<svg version="1.1" id="Capa_1" xmlns="http://www.w3.org/2000/svg" xmlns:xlink="http://www.w3.org/1999/xlink" x="0px" y="0px"
	 viewBox="0 0 512 512" style="enable-background:new 0 0 512 512;" xml:space="preserve">
<path style="fill:#0F5FCE;" d="M448.8,78.2c8.284,0,15-6.716,15-15V15c0-8.284-6.716-15-15-15H63.2
	c-5.766,0-11.021,3.305-13.52,8.502c-2.498,5.197-1.796,11.366,1.807,15.868L236.792,256L51.487,487.63
	c-3.602,4.502-4.305,10.671-1.807,15.868C52.179,508.695,57.435,512,63.2,512h385.6c8.284,0,15-6.716,15-15v-48.201
	c0-8.284-6.716-15-15-15s-15,6.716-15,15V482H94.409l173.305-216.63c4.383-5.477,4.383-13.263,0-18.74L94.409,30H433.8v33.2
	C433.8,71.484,440.516,78.2,448.8,78.2z"/>
<g>
	<path style="fill:#063E8B;" d="M448.8,512c8.284,0,15-6.716,15-15v-48.201c0-8.284-6.716-15-15-15s-15,6.716-15,15V482H271.001v30
		H448.8z"/>
	<path style="fill:#063E8B;" d="M448.8,78.2c8.284,0,15-6.716,15-15V15c0-8.284-6.716-15-15-15H271.001v30H433.8v33.2
		C433.8,71.484,440.516,78.2,448.8,78.2z"/>
</g>
<g>
</g>
<g>
</g>
<g>
</g>
<g>
</g>
<g>
</g>
<g>
</g>
<g>
</g>
<g>
</g>
<g>
</g>
<g>
</g>
<g>
</g>
<g>
</g>
<g>
</g>
<g>
</g>
<g>
</g>
</svg>
